<svg width="576" height="222" viewBox="0 0 576 222" xmlns="http://www.w3.org/2000/svg"><title>Slice 1</title><g fill="none" fill-rule="evenodd"><path d="M252.405 77.154c-15.114 0-25.704 7.482-29.068 20.525-3.905 15.166 8.766 22.714 18.017 28.225 10.227 6.095 13.446 8.949 12.377 13.843-1.242 5.676-9.425 7.697-16.667 7.697-3.343 0-7.222-.425-9.871-2.686-2.971-2.541.117-7.619 3.092-8.878 1.232-1.259-7.58-11.258-10.354-8.775-2.773 2.481-5.758 6.466-7.104 12.642-.938 4.292.154 8.676 3.081 12.341 4.348 5.453 12.062 8.581 21.156 8.585 15.753 0 27.057-6.935 29.493-18.088 3.282-15.068-9.319-22.58-18.517-28.06-10.229-6.098-13.22-8.764-11.998-13.525 1.819-7.043 7.322-10.617 16.363-10.617 3.239 0 5.784 1.043 7.359 3.016 1.269 1.59 1.597 3.412 1.356 4.516-.281 1.303-1.101 2.555-2.016 3.604-1.099 1.262-1.675 3.409.294 4.664 1.97 1.251 8.388 5.338 8.388 5.338 2.458-2.49 5.142-6.125 6.156-10.768 1.146-5.261-.328-11.11-3.946-15.641-4.096-5.13-10.343-7.958-17.591-7.958M95.938 105.936c-5.724 10.849-6.83 21.979-3.199 32.18.238.672.499 1.3.754 1.931-.064-.162-.138-.308-.204-.473-6.371 4.11-13.482 8.042-19.501 9.739-2.73.77-2.271 4.127-2.023 5.936.257 1.866 1.735 4.84 4.619 4.84.348 0 .706-.044 1.075-.139 4.106-1.029 12.256-4.991 21.46-10.481 5.199 6.412 11.522 8.99 16.641 9.945 1.902.353 3.885.536 5.898.536 9.657 0 19.076-5.19 27.145-11.777.559 1.528 1.29 3.007 2.361 4.349 4.305 5.39 12.253 8.36 22.392 8.36 16.211 0 28.236-7.101 30.631-18.088 3.273-15-8.936-22.523-17.86-28.01-9.871-6.081-12.751-8.743-11.508-13.576 1.818-7.046 7.322-10.619 16.362-10.619 3.933 0 8.642 1.98 9.623 5.648.419 1.583-.013 3.227-1.263 4.857-.056.067-.398.408-2.203 2.079-.68.627-1.106 1.802-1.029 2.864.06.932.499 1.735 1.24 2.248 2.934 2.052 8.246 4.282 8.47 4.377l.51.209.398-.375c2.539-2.379 5.798-6.313 6.937-11.53 1.072-4.934-.418-10.553-3.993-15.032-4.344-5.446-11.16-8.567-18.69-8.567-15.113 0-25.704 7.475-29.067 20.521-3.886 15.094 8.4 22.657 17.371 28.177 9.864 6.078 12.965 8.937 11.887 13.887-.975 4.465-8.474 7.701-17.816 7.701-2.72 0-5.293-.297-7.429-.86-2.395-.632-4.659-1.492-4.988-3.489-.254-1.597.446-3.588 1.839-5.205 1.186-1.373-.777-5.587-2.237-7.08-1.819-1.859-3.447-3.394-4.937-3.394-.45 0-.865.158-1.216.429l-.101-.065-.482.564c-9.292 10.859-22.362 18.152-32.514 18.152-1.166 0-2.292-.098-3.34-.29-2.994-.564-5.58-1.954-7.747-4.138a221.508 221.508 0 0 0 7.835-5.581l.639-.486c18.587-14.059 28.551-26.69 29.61-37.546.523-5.346-1.092-10.296-4.666-14.315-2.961-3.328-7.051-5.089-11.841-5.089-4.716 0-10.062 1.717-15.464 4.961-8.3 4.984-15.726 12.897-20.379 21.715m-1.212 36.874c-.158-.317-.305-.647-.456-.975.151.328.298.658.456.975m1.323 2.477c-.168-.29-.329-.597-.496-.9.164.299.328.61.496.9m.944 1.502c.151.233.298.479.452.705-.154-.226-.301-.472-.452-.705m26.043-51.21c3.192-1.916 6.444-3.061 8.695-3.061 1.005 0 1.732.223 2.114.652 1.129 1.272 1.544 2.527 1.38 4.198-.687 7.069-10.508 18.888-24.422 29.416l-.733.554.02.037a184.89 184.89 0 0 1-5.547 4.323c-3.869-14.889 8.169-29.92 18.493-36.119" fill="#FFF"/><path d="M211.366 180.63c-.419 0-.844.084-1.256.242a147.151 147.151 0 0 1-14.443 4.482 140.414 140.414 0 0 1-17.954 3.3c-5.422.631-10.996.955-16.556.955-31.506 0-58.44-6.466-80.081-14.439-3.306-1.209-6.418-2.363-9.395-3.412-5.876-2.076-11.312-3.999-16.286-5.491 3.638-13.184 6.458-29.106 9.606-46.86 2.158-12.155 4.382-24.719 7.105-37.778.097-.47.231-.962.345-1.442 1.4.109 2.803.209 4.187.209h.204c6.495 0 15.864-1.916 23.604-7.245 1.983-1.366 3.782-3.293 5.5-5.122 3.973-4.219 6.394-10.643 6.642-16.397l.04-1.607h.084l.04-1.133c.007-.16-.003-.321 0-.48l.034-.726h-.02c0 .176-.007.355-.014.534.031-2.247-.251-4.573-.877-6.473-1.93-5.889-6.602-9.766-13.15-10.917a15.448 15.448 0 0 0-2.617-.229c-9.69 0-17.668 9.334-20.294 12.398-1.628 1.914-2.948 3.679-4.03 5.403-3.447 5.504-6.488 11.787-8.832 18.058-4.582-.361-9.218-1.094-13.442-2.673-5.711-2.14-10.92-4.769-15.485-7.85l-.124-.081-.151-.03c-.767-.182-1.413.209-1.618.935-.592 2.139 3.474 10.374 4.797 11.18 3.279 2.004 7.091 4.589 12.018 6.51a99.034 99.034 0 0 0 10.554 3.448c-.073.338-.167.682-.237 1.013-2.767 13.252-5.018 25.924-7.188 38.207-3.183 17.946-5.936 33.493-9.476 46.138-3.511-.415-6.475-.611-9.275-.611-8.662 0-15.864 1.971-22.003 6.014C4.938 172.871-.656 180.936.389 189.839c.06.493.053.978.154 1.474 1.839 9.153 11.231 13.715 19.166 14.076.473.027.938.037 1.393.037 19.917 0 27.661-20.008 30.213-26.581 4.737 1.403 10.146 3.313 16.028 5.395 21.065 7.448 49.914 17.65 84.163 17.65 20.53 0 41.046-3.723 60.965-11.073l.088-.037c2.073-1.032 2.391-3.081 1.812-4.552-.513-1.299-1.695-5.598-3.005-5.598M82.881 55.462c.734-1.164 1.675-2.416 2.884-3.827 5.808-6.793 8.964-7.809 10.323-7.809.138 0 .262.007.379.03 2.415.425 2.777 1.519 2.944 2.045.232.702.302 1.897.211 2.868l-.094 1.256-.07 1.296c-.234 2.4-1.4 5.231-3.035 6.972-4.571 4.849-11.746 7.977-19.37 8.355 1.708-3.924 3.685-7.768 5.828-11.186M21.163 192.201c-.288 0-.57-.004-.851-.02-3.219-.145-6.575-1.846-6.907-3.497-.643-3.209 2.151-7.008 5.102-8.956 3.995-2.635 8.701-3.86 14.811-3.86 1.517 0 3.139.077 4.934.232-6.005 14.242-12.269 16.101-17.089 16.101M430.82 143.416c-5.483 3.837-11.05 6.304-14.523 6.219-2.696-.068-4.847-1.549-6.156-3.027-1.846-2.095-2.04-4.573-1.551-6.81 1.199-5.47 5.58-24.884 5.627-25.076l.047-.23c2.478-13.017 1.403-21.79-3.364-27.604-3.868-4.711-9.958-7.101-18.117-7.101-6.478 0-14.209 2.214-20.981 10.084-.63-2.15-1.427-3.996-2.452-5.316-2.874-3.721-6.77-5.962-11.261-6.908-.757-.161-1.494-.367-2.288-.448h-.007c-4.381-.445-8.555 1.11-12.279 3.324-2.673 1.589-5.128 3.506-7.51 5.514.308.368.569.793.857 1.188-2.384-3.247-5.423-5.741-9.08-7.232-7.463-3.044-15.917.486-20.553 8.585-.543.935-.934 1.931-1.226 2.953-1.102-4.296-2.284-8.436-5.828-8.014-10.323 7.298-19.062 20.531-22.17 34.764-2.827 12.948-.858 24.868 5.395 32.707 4.442 5.569 10.88 8.629 18.128 8.629 8.826 0 17.756-4.029 25.156-11.346 7.191-7.117 12.436-16.936 14.771-27.641 1.799-8.231 1.809-15.918.284-22.424.017.077.047.148.064.226.111-.091.215-.182.318-.273 1.632-1.421 3.232-2.869 4.844-4.313 1.701-1.526 3.439-3.246 5.567-4.151 2.25-.958 5.188-1.012 7.345-.027 2.6 1.191 4.358 4.178 3.742 7.022-.017.088-.051.297-.104.584-.982 4.732-2.693 12.955-4.545 21.814l.03.007c-.007.023-.014.044-.017.067l.024.007c-3.839 18.489-7.751 37.323-7.956 38.406-.305 1.667.636 3.814 3.065 3.814h9.616l8.552-41.279c3.051-12.796 9.127-27.097 20.499-27.097 3.252 0 6.917.324 8.709 3.465 1.139 1.995.947 4.61.911 6.824-.047 2.902-.472 5.747-1.008 8.594-.369 1.618-4.468 19.759-5.627 25.057-1.682 7.687.78 12.82 3.134 15.773 3.448 4.32 9.112 6.891 15.158 6.891 8.484 0 17.433-5.372 22.012-8.578l-5.252-7.623zM327.849 97.67c-.003-.004-.003-.011-.006-.014.003.003.003.007.006.014zm-9.603-6.298c.991-.685 2.274-.881 3.413-.469 1.434.513 2.312 1.769 3.403 2.747a10.208 10.208 0 0 1 1.622 1.887c-1.98 2.119-3.879 3.766-5.608 3.823-2.382.081-4.221-1.701-4.545-3.968.003.013.01.023.013.037-.244-1.748.225-3.037 1.702-4.057zm10.394 26.417c-3.5 16.043-15.409 28.606-27.112 28.606-3.329 0-5.912-1.208-7.901-3.695-3.638-4.559-4.71-12.827-2.8-21.574 2.151-9.867 8.012-19.421 14.711-25.097.134 2.123.74 4.229 1.872 6.135l-.014-.077c2.774 4.667 7.919 7.242 14.099 7.036 2.938-.095 5.65-.874 8.192-2.052.115 3.601-.284 7.232-1.047 10.718zm.988-12.122c.019.28.04.554.057.834.006.185.026.371.033.557-.013-.466-.057-.925-.09-1.391z" fill="#FFF"/><path d="M519.043 114.029v-.003c5.296-24.611 6.866-34.216 6.957-34.789-1.072-.691-5.547-.921-13.247-.712-.017.105-4.401 20.545-8.695 40.542-6.381 22.601-12.163 27.328-19.653 27.328-3.308 0-5.807-1.124-7.646-3.428-3.488-4.391-4.345-12.55-2.284-21.817l9.183-41.363c.211-1.656-5.519-1.718-13.167-1.262l-8.832 39.733c-2.044 9.206-1.785 17.737.523 24.669-4.841 2.932-11.838 5.807-16.119 5.905-3.717.088-8.571-1.087-7.811-4.701 1.307-6.274 10.806-49.934 13.124-60.591 0 0 4.244-19.549 7.634-35.194 2.341-10.829-3.762-19.204-4.462-20.122-2.994-3.366-9.061-.463-10.394 8.075.031.04 3.092 4.323 2.027 9.226a47623.571 47623.571 0 0 1-7.627 35.177c-2.298 10.62-11.764 54.334-13.123 60.588-.905 4.141.049 8.244 2.699 11.558 3.329 4.177 9.231 6.769 15.394 6.769 7.791 0 16.524-4.66 22.577-8.993.143.195.26.422.412.61 4.364 5.488 10.553 8.383 17.892 8.383 4.422 0 8.207-.976 11.532-2.649 0 .006-.012.054-.009.047-.184.777-.368 1.563-.549 2.356-1.86 7.967-5.276 14.838-9.821 20.696h.003c-19.699 25.394-60.62 31.894-87.996 27.315-19.122-3.203-38.381-12.156-34.6-28.583-4.971-1.398-11.965-5.36-12.444-1.759-1.443 10.887 2.757 20.737 12.149 28.492 7.845 6.48 19.093 11.217 32.527 13.704 6.931 1.286 14.179 1.917 21.485 1.913 15.786 0 31.86-2.935 45.613-8.553 11.473-4.692 21.156-11.056 28.769-18.922 1.608-1.66 3.085-3.395 4.492-5.173l.03.026c6.09-7.683 10.31-16.444 12.567-26.133 10.23-43.903 11.175-49.003 10.89-48.365" fill="#F4CC41"/></g></svg>